<?xml version="1.0" encoding="UTF-8"?>
<svg width="399px" height="398px" viewBox="0 0 399 398" version="1.1" xmlns="http://www.w3.org/2000/svg" xmlns:xlink="http://www.w3.org/1999/xlink">
    <!-- Generator: Sketch 41.2 (35397) - http://www.bohemiancoding.com/sketch -->
    <title>FINAL LOGO</title>
    <desc>Created with Sketch.</desc>
    <defs></defs>
    <g id="Page-1" stroke="none" stroke-width="1" fill="none" fill-rule="evenodd">
        <g id="Style-sheet" transform="translate(-92.000000, -162.000000)" fill="#000000">
            <g id="style-sheet" transform="translate(92.000000, 61.000000)">
                <g id="logos">
                    <g id="FINAL-LOGO" transform="translate(0.000000, 101.000000)">
                        <path d="M198.5,312 C260.632034,312 311,261.632034 311,199.5 C311,137.367966 260.632034,87 198.5,87 C136.367966,87 86,137.367966 86,199.5 C86,261.632034 136.367966,312 198.5,312 Z M199.5,293 C250.586339,293 292,251.586339 292,200.5 C292,149.413661 250.586339,108 199.5,108 C148.413661,108 107,149.413661 107,200.5 C107,251.586339 148.413661,293 199.5,293 Z" id="Combined-Shape"></path>
                        <path d="M199.5,256.5 C230.427946,256.5 255.5,231.427946 255.5,200.5 C255.5,169.572054 230.427946,144.5 199.5,144.5 C168.572054,144.5 143.5,169.572054 143.5,200.5 C143.5,231.427946 168.572054,256.5 199.5,256.5 Z M199.997778,247.042222 C225.427422,247.042222 246.042222,226.427422 246.042222,200.997778 C246.042222,175.568133 225.427422,154.953333 199.997778,154.953333 C174.568133,154.953333 153.953333,175.568133 153.953333,200.997778 C153.953333,226.427422 174.568133,247.042222 199.997778,247.042222 Z" id="Combined-Shape-Copy"></path>
                        <g id="Group-3" transform="translate(190.000000, 118.000000)">
                            <polygon id="Triangle-2" points="9.5 0 19 17 0 17"></polygon>
                            <polygon id="Triangle-2-Copy" transform="translate(9.500000, 156.500000) scale(1, -1) translate(-9.500000, -156.500000) " points="9.5 148 19 165 0 165"></polygon>
                        </g>
                        <g id="Group-3-Copy" transform="translate(199.500000, 200.500000) rotate(-90.000000) translate(-199.500000, -200.500000) translate(190.000000, 118.000000)">
                            <polygon id="Triangle-2" points="9.5 0 19 17 0 17"></polygon>
                            <polygon id="Triangle-2-Copy" transform="translate(9.500000, 156.500000) scale(1, -1) translate(-9.500000, -156.500000) " points="9.5 148 19 165 2.84217094e-14 165"></polygon>
                        </g>
                        <g id="Group-3-Copy-2" transform="translate(199.500000, 200.500000) rotate(-135.000000) translate(-199.500000, -200.500000) translate(190.000000, 118.000000)">
                            <polygon id="Triangle-2" points="9.5 -8.52651283e-14 19 17 0 17"></polygon>
                            <polygon id="Triangle-2-Copy" transform="translate(9.500000, 156.500000) scale(1, -1) translate(-9.500000, -156.500000) " points="9.5 148 19 165 -1.13686838e-13 165"></polygon>
                        </g>
                        <g id="Group-3-Copy-3" transform="translate(199.500000, 200.500000) rotate(-225.000000) translate(-199.500000, -200.500000) translate(190.000000, 118.000000)">
                            <polygon id="Triangle-2" points="9.5 -5.68434189e-14 19 17 0 17"></polygon>
                            <polygon id="Triangle-2-Copy" transform="translate(9.500000, 156.500000) scale(1, -1) translate(-9.500000, -156.500000) " points="9.5 148 19 165 1.84741111e-13 165"></polygon>
                        </g>
                        <g id="Group-4" transform="translate(190.000000, 0.000000)">
                            <polygon id="Triangle-2-Copy-2" points="9.5 77 0 60 9 0 19 60"></polygon>
                            <polygon id="Triangle-2-Copy-3" transform="translate(9.500000, 359.500000) rotate(-180.000000) translate(-9.500000, -359.500000) " points="9.5 398 -3.55271368e-15 381 9 321 19 381"></polygon>
                        </g>
                        <g id="Group-4-Copy" transform="translate(199.500000, 199.000000) rotate(-270.000000) translate(-199.500000, -199.000000) translate(190.000000, 0.000000)">
                            <polygon id="Triangle-2-Copy-2" points="9.5 77 -2.84217094e-14 60 9 0 19 60"></polygon>
                            <polygon id="Triangle-2-Copy-3" transform="translate(9.500000, 359.500000) rotate(-180.000000) translate(-9.500000, -359.500000) " points="9.5 398 -3.55271368e-15 381 9 321 19 381"></polygon>
                        </g>
                        <rect id="Rectangle-8" x="196" y="155" width="7" height="92"></rect>
                        <rect id="Rectangle-8-Copy-2" x="196" y="154" width="7" height="94"></rect>
                        <rect id="Rectangle-8-Copy-4" transform="translate(199.500000, 201.000000) rotate(-315.000000) translate(-199.500000, -201.000000) " x="196" y="154" width="7" height="94"></rect>
                        <rect id="Rectangle-8-Copy-5" transform="translate(199.500000, 201.000000) rotate(-45.000000) translate(-199.500000, -201.000000) " x="196" y="154" width="7" height="94"></rect>
                        <rect id="Rectangle-8-Copy-3" transform="translate(199.500000, 200.500000) rotate(-270.000000) translate(-199.500000, -200.500000) " x="196" y="153" width="7" height="95"></rect>
                    </g>
                </g>
            </g>
        </g>
    </g>
</svg>